{
  "source": "C:\\Users\\Peter\\Desktop\\stuff\\MIUN\\quantitative_research\\video_compression\\videos\\BVI-HD\\BVI-HD_CDVL_videos\\ORIG\\Grass_1920x1080_60fps.mp4",
  "output": "C:\\Users\\Peter\\Desktop\\stuff\\MIUN\\quantitative_research\\video_compression\\compressed_videos\\BVI-HD\\vp9\\3\\Grass_1920x1080_60fps_vp9.webm",
  "codec": "vp9",
  "ok": "Input #0, mov,mp4,m4a,3gp,3g2,mj2, from 'C:\\Users\\Peter\\Desktop\\stuff\\MIUN\\quantitative_research\\video_compression\\videos\\BVI-HD\\BVI-HD_CDVL_videos\\ORIG\\Grass_1920x1080_60fps.mp4':\n  Metadata:\n    major_brand     : isom\n    minor_version   : 512\n    compatible_brands: isomiso2avc1mp41\n    encoder         : Lavf54.28.101\n  Duration: 00:00:05.00, start: 0.000000, bitrate: 655968 kb/s\n  Stream #0:0[0x1](und): Video: h264 (High 4:4:4 Predictive) (avc1 / 0x31637661), yuv420p(progressive), 1920x1080, 655963 kb/s, 60 fps, 60 tbr, 60 tbn (default)\n    Metadata:\n      handler_name    : VideoHandler\n      vendor_id       : [0][0][0][0]\n[out#0/webm @ 000001dff2ca93c0] Codec AVOption b:a (set bitrate (in bits/s)) has not been used for any stream. The most likely reason is either wrong type (e.g. a video option with no video streams) or that it is a private option of some decoder which was not actually used for any stream.\nStream mapping:\n  Stream #0:0 -> #0:0 (h264 (native) -> vp9 (libvpx-vp9))\nPress [q] to stop, [?] for help\n[libvpx-vp9 @ 000001dff38c0300] v1.15.2-100-g40561f514\nOutput #0, webm, to 'C:\\Users\\Peter\\Desktop\\stuff\\MIUN\\quantitative_research\\video_compression\\compressed_videos\\BVI-HD\\vp9\\3\\Grass_1920x1080_60fps_vp9.webm':\n  Metadata:\n    major_brand     : isom\n    minor_version   : 512\n    compatible_brands: isomiso2avc1mp41\n    encoder         : Lavf62.3.100\n  Stream #0:0(und): Video: vp9, yuv420p(tv, progressive), 1920x1080, q=2-31, 3000 kb/s, 60 fps, 1k tbn (default)\n    Metadata:\n      encoder         : Lavc62.11.100 libvpx-vp9\n      handler_name    : VideoHandler\n      vendor_id       : [0][0][0][0]\n    Side data:\n      cpb: bitrate max/min/avg: 0/0/0 buffer size: 3000000 vbv_delay: N/A\nframe=    0 fps=0.0 q=0.0 size=       0KiB time=N/A bitrate=N/A speed=N/A elapsed=0:00:00.51    \nframe=    4 fps=3.4 q=54.0 size=       1KiB time=00:00:00.05 bitrate= 101.3kbits/s speed=0.0426x elapsed=0:00:01.17    \nframe=    8 fps=4.6 q=54.0 size=       1KiB time=00:00:00.13 bitrate=  38.0kbits/s speed=0.0772x elapsed=0:00:01.72    \nframe=   12 fps=5.3 q=54.0 size=       1KiB time=00:00:00.20 bitrate=  25.3kbits/s speed=0.0887x elapsed=0:00:02.25    \nframe=   16 fps=5.7 q=52.0 size=       1KiB time=00:00:00.26 bitrate=  19.0kbits/s speed=0.0958x elapsed=0:00:02.78    \nframe=   20 fps=6.0 q=54.0 size=       1KiB time=00:00:00.33 bitrate=  15.2kbits/s speed= 0.1x elapsed=0:00:03.32    \nframe=   24 fps=6.2 q=55.0 size=       1KiB time=00:00:00.40 bitrate=  12.7kbits/s speed=0.104x elapsed=0:00:03.84    \nframe=   28 fps=6.4 q=51.0 size=       1KiB time=00:00:00.46 bitrate=  10.9kbits/s speed=0.107x elapsed=0:00:04.36    \nframe=   32 fps=6.5 q=53.0 size=       1KiB time=00:00:00.53 bitrate=   9.5kbits/s speed=0.109x elapsed=0:00:04.88    \nframe=   36 fps=6.6 q=54.0 size=       1KiB time=00:00:00.60 bitrate=   8.4kbits/s speed=0.11x elapsed=0:00:05.44    \nframe=   39 fps=6.5 q=48.0 size=       1KiB time=00:00:00.65 bitrate=   7.8kbits/s speed=0.108x elapsed=0:00:05.99    \nframe=   44 fps=6.7 q=55.0 size=       1KiB time=00:00:00.73 bitrate=   6.9kbits/s speed=0.112x elapsed=0:00:06.52    \nframe=   48 fps=6.8 q=57.0 size=       1KiB time=00:00:00.80 bitrate=   6.3kbits/s speed=0.113x elapsed=0:00:07.07    \nframe=   52 fps=6.8 q=51.0 size=       1KiB time=00:00:00.86 bitrate=   5.8kbits/s speed=0.114x elapsed=0:00:07.60    \nframe=   56 fps=6.9 q=55.0 size=       1KiB time=00:00:00.93 bitrate=   5.4kbits/s speed=0.115x elapsed=0:00:08.14    \nframe=   60 fps=6.9 q=58.0 size=       1KiB time=00:00:01.00 bitrate=   5.1kbits/s speed=0.115x elapsed=0:00:08.68    \nframe=   63 fps=6.8 q=47.0 size=       1KiB time=00:00:01.05 bitrate=   4.8kbits/s speed=0.114x elapsed=0:00:09.21    \nframe=   67 fps=6.9 q=52.0 size=       1KiB time=00:00:01.11 bitrate=   4.5kbits/s speed=0.115x elapsed=0:00:09.73    \nframe=   72 fps=7.0 q=57.0 size=       1KiB time=00:00:01.20 bitrate=   4.2kbits/s speed=0.117x elapsed=0:00:10.24    \nframe=   75 fps=7.0 q=47.0 size=       1KiB time=00:00:01.25 bitrate=   4.1kbits/s speed=0.116x elapsed=0:00:10.78    \nframe=   79 fps=7.0 q=51.0 size=       1KiB time=00:00:01.31 bitrate=   3.8kbits/s speed=0.116x elapsed=0:00:11.33    \nframe=   83 fps=7.0 q=49.0 size=       1KiB time=00:00:01.38 bitrate=   3.7kbits/s speed=0.117x elapsed=0:00:11.85    \nframe=   86 fps=6.9 q=50.0 size=       1KiB time=00:00:01.43 bitrate=   3.5kbits/s speed=0.116x elapsed=0:00:12.37    \nframe=   91 fps=7.0 q=50.0 size=       1KiB time=00:00:01.51 bitrate=   3.3kbits/s speed=0.117x elapsed=0:00:12.91    \nframe=   95 fps=7.1 q=49.0 size=       1KiB time=00:00:01.58 bitrate=   3.2kbits/s speed=0.118x elapsed=0:00:13.45    \nframe=   98 fps=7.0 q=48.0 size=       1KiB time=00:00:01.63 bitrate=   3.1kbits/s speed=0.117x elapsed=0:00:13.98    \nframe=  102 fps=7.0 q=53.0 size=       1KiB time=00:00:01.70 bitrate=   3.0kbits/s speed=0.117x elapsed=0:00:14.51    \nframe=  106 fps=7.0 q=55.0 size=       1KiB time=00:00:01.76 bitrate=   2.9kbits/s speed=0.117x elapsed=0:00:15.04    \nframe=  110 fps=7.1 q=50.0 size=       1KiB time=00:00:01.83 bitrate=   2.8kbits/s speed=0.118x elapsed=0:00:15.58    \nframe=  114 fps=7.1 q=53.0 size=       1KiB time=00:00:01.90 bitrate=   2.7kbits/s speed=0.118x elapsed=0:00:16.11    \nframe=  118 fps=7.1 q=56.0 size=       1KiB time=00:00:01.96 bitrate=   2.6kbits/s speed=0.118x elapsed=0:00:16.63    \nframe=  122 fps=7.1 q=51.0 size=       1KiB time=00:00:02.03 bitrate=   2.5kbits/s speed=0.118x elapsed=0:00:17.17    \nframe=  126 fps=7.1 q=54.0 size=       1KiB time=00:00:02.10 bitrate=   2.4kbits/s speed=0.118x elapsed=0:00:17.72    \nframe=  128 fps=7.0 q=56.0 size=       1KiB time=00:00:02.13 bitrate=   2.4kbits/s speed=0.117x elapsed=0:00:18.23    \nframe=  133 fps=7.1 q=49.0 size=    1024KiB time=00:00:02.21 bitrate=3784.3kbits/s speed=0.118x elapsed=0:00:18.75    \nframe=  138 fps=7.2 q=58.0 size=    1024KiB time=00:00:02.30 bitrate=3647.2kbits/s speed=0.119x elapsed=0:00:19.28    \nframe=  141 fps=7.1 q=58.0 size=    1024KiB time=00:00:02.35 bitrate=3569.6kbits/s speed=0.118x elapsed=0:00:19.84    \nframe=  144 fps=7.1 q=48.0 size=    1024KiB time=00:00:02.40 bitrate=3495.3kbits/s speed=0.118x elapsed=0:00:20.38    \nframe=  148 fps=7.1 q=50.0 size=    1024KiB time=00:00:02.46 bitrate=3400.8kbits/s speed=0.118x elapsed=0:00:20.92    \nframe=  151 fps=7.0 q=54.0 size=    1024KiB time=00:00:02.51 bitrate=3333.2kbits/s speed=0.117x elapsed=0:00:21.45    \nframe=  155 fps=7.0 q=50.0 size=    1024KiB time=00:00:02.58 bitrate=3247.2kbits/s speed=0.117x elapsed=0:00:22.00    \nframe=  159 fps=7.1 q=53.0 size=    1024KiB time=00:00:02.65 bitrate=3165.5kbits/s speed=0.118x elapsed=0:00:22.54    \nframe=  163 fps=7.1 q=53.0 size=    1024KiB time=00:00:02.71 bitrate=3087.8kbits/s speed=0.118x elapsed=0:00:23.08    \nframe=  165 fps=7.0 q=50.0 size=    1024KiB time=00:00:02.75 bitrate=3050.4kbits/s speed=0.116x elapsed=0:00:23.61    \nframe=  169 fps=7.0 q=51.0 size=    1024KiB time=00:00:02.81 bitrate=2978.2kbits/s speed=0.117x elapsed=0:00:24.14    \nframe=  173 fps=7.0 q=53.0 size=    1024KiB time=00:00:02.88 bitrate=2909.3kbits/s speed=0.117x elapsed=0:00:24.67    \nframe=  176 fps=7.0 q=40.0 size=    1024KiB time=00:00:02.93 bitrate=2859.8kbits/s speed=0.116x elapsed=0:00:25.19    \nframe=  180 fps=7.0 q=48.0 size=    1024KiB time=00:00:03.00 bitrate=2796.2kbits/s speed=0.117x elapsed=0:00:25.72    \nframe=  184 fps=7.0 q=51.0 size=    1024KiB time=00:00:03.06 bitrate=2735.4kbits/s speed=0.117x elapsed=0:00:26.26    \nframe=  187 fps=7.0 q=54.0 size=    1024KiB time=00:00:03.11 bitrate=2691.5kbits/s speed=0.116x elapsed=0:00:26.80    \nframe=  191 fps=7.0 q=49.0 size=    1024KiB time=00:00:03.18 bitrate=2635.2kbits/s speed=0.116x elapsed=0:00:27.33    \nframe=  195 fps=7.0 q=53.0 size=    1024KiB time=00:00:03.25 bitrate=2581.1kbits/s speed=0.117x elapsed=0:00:27.89    \nframe=  199 fps=7.0 q=54.0 size=    1024KiB time=00:00:03.31 bitrate=2529.2kbits/s speed=0.117x elapsed=0:00:28.42    \nframe=  202 fps=7.0 q=45.0 size=    1024KiB time=00:00:03.36 bitrate=2491.7kbits/s speed=0.116x elapsed=0:00:28.97    \nframe=  206 fps=7.0 q=49.0 size=    1024KiB time=00:00:03.43 bitrate=2443.3kbits/s speed=0.116x elapsed=0:00:29.50    \nframe=  210 fps=7.0 q=50.0 size=    1024KiB time=00:00:03.50 bitrate=2396.7kbits/s speed=0.116x elapsed=0:00:30.04    \nframe=  213 fps=7.0 q=50.0 size=    1024KiB time=00:00:03.55 bitrate=2363.0kbits/s speed=0.116x elapsed=0:00:30.55    \nframe=  217 fps=7.0 q=51.0 size=    1024KiB time=00:00:03.61 bitrate=2319.4kbits/s speed=0.116x elapsed=0:00:31.08    \nframe=  222 fps=7.0 q=51.0 size=    1024KiB time=00:00:03.70 bitrate=2267.2kbits/s speed=0.117x elapsed=0:00:31.61    \nframe=  225 fps=7.0 q=51.0 size=    1024KiB time=00:00:03.75 bitrate=2237.0kbits/s speed=0.117x elapsed=0:00:32.13    \nframe=  228 fps=7.0 q=47.0 size=    1024KiB time=00:00:03.80 bitrate=2207.5kbits/s speed=0.116x elapsed=0:00:32.66    \nframe=  232 fps=7.0 q=48.0 size=    1024KiB time=00:00:03.86 bitrate=2169.5kbits/s speed=0.117x elapsed=0:00:33.18    \nframe=  235 fps=7.0 q=54.0 size=    1024KiB time=00:00:03.91 bitrate=2141.8kbits/s speed=0.116x elapsed=0:00:33.71    \nframe=  239 fps=7.0 q=49.0 size=    1024KiB time=00:00:03.98 bitrate=2105.9kbits/s speed=0.116x elapsed=0:00:34.24    \nframe=  243 fps=7.0 q=52.0 size=    1024KiB time=00:00:04.05 bitrate=2071.3kbits/s speed=0.117x elapsed=0:00:34.74    \nframe=  246 fps=7.0 q=39.0 size=    1024KiB time=00:00:04.10 bitrate=2046.0kbits/s speed=0.116x elapsed=0:00:35.26    \nframe=  250 fps=7.0 q=47.0 size=    1024KiB time=00:00:04.16 bitrate=2013.3kbits/s speed=0.116x elapsed=0:00:35.78    \nframe=  255 fps=7.0 q=53.0 size=    1024KiB time=00:00:04.25 bitrate=1973.8kbits/s speed=0.117x elapsed=0:00:36.31    \nframe=  258 fps=7.0 q=52.0 size=    1792KiB time=00:00:04.30 bitrate=3414.0kbits/s speed=0.117x elapsed=0:00:36.84    \nframe=  262 fps=7.0 q=51.0 size=    1792KiB time=00:00:04.36 bitrate=3361.8kbits/s speed=0.117x elapsed=0:00:37.37    \nframe=  266 fps=7.0 q=53.0 size=    1792KiB time=00:00:04.43 bitrate=3311.3kbits/s speed=0.117x elapsed=0:00:37.88    \nframe=  270 fps=7.0 q=44.0 size=    1792KiB time=00:00:04.50 bitrate=3262.2kbits/s speed=0.117x elapsed=0:00:38.41    \nframe=  273 fps=7.0 q=45.0 size=    1792KiB time=00:00:04.55 bitrate=3226.4kbits/s speed=0.117x elapsed=0:00:38.93    \nframe=  276 fps=7.0 q=51.0 size=    1792KiB time=00:00:04.60 bitrate=3191.3kbits/s speed=0.117x elapsed=0:00:39.45    \nframe=  276 fps=6.9 q=51.0 size=    1792KiB time=00:00:04.60 bitrate=3191.3kbits/s speed=0.115x elapsed=0:00:39.97    \nframe=  276 fps=6.8 q=51.0 size=    1792KiB time=00:00:04.60 bitrate=3191.3kbits/s speed=0.114x elapsed=0:00:40.48    \nframe=  276 fps=6.7 q=51.0 size=    1792KiB time=00:00:04.60 bitrate=3191.3kbits/s speed=0.112x elapsed=0:00:41.00    \nframe=  276 fps=6.6 q=51.0 size=    1792KiB time=00:00:04.60 bitrate=3191.3kbits/s speed=0.111x elapsed=0:00:41.52    \nframe=  276 fps=6.6 q=51.0 size=    1792KiB time=00:00:04.60 bitrate=3191.3kbits/s speed=0.109x elapsed=0:00:42.07    \nframe=  276 fps=6.5 q=51.0 size=    1792KiB time=00:00:04.60 bitrate=3191.3kbits/s speed=0.108x elapsed=0:00:42.59    \n[out#0/webm @ 000001dff2ca93c0] video:2460KiB audio:0KiB subtitle:0KiB other streams:0KiB global headers:0KiB muxing overhead: 0.113157%\nframe=  300 fps=7.0 q=51.0 Lsize=    2463KiB time=00:00:05.00 bitrate=4035.8kbits/s speed=0.117x elapsed=0:00:42.69    \n",
  "seconds": 43.03206253051758,
  "probe_out": {}
}